<svg xmlns="http://www.w3.org/2000/svg" fill='#fff' width="128" height="128" data-name="Layer 1" id="wheel"><path d="M42.053 58.02a22.608 22.608 0 0 1 2.206-5.305 51.155 51.155 0 0 0-11.042-6.628l-2.191-.964a37.756 37.756 0 0 0-3.695 8.907l2.235.87a51.172 51.172 0 0 0 12.487 3.12zm4.5-8.599a22.95 22.95 0 0 1 2.868-2.869 55.22 55.22 0 0 1-6.996-11.726l-.705-1.601a38.203 38.203 0 0 0-8.495 8.495l1.602.705a55.215 55.215 0 0 1 11.725 6.996zM41.344 66.03c-.06-.67-.095-1.345-.095-2.03s.036-1.36.095-2.03a55.244 55.244 0 0 1-13.23-3.342l-1.637-.637a38.047 38.047 0 0 0 0 12.019l1.638-.638a55.244 55.244 0 0 1 13.23-3.342zm.708 3.95a51.172 51.172 0 0 0-12.487 3.12l-2.235.87a37.756 37.756 0 0 0 3.695 8.907l2.19-.964a51.147 51.147 0 0 0 11.043-6.628 22.61 22.61 0 0 1-2.206-5.304zm10.662 13.761a51.19 51.19 0 0 0-6.63 11.042l-.963 2.191a37.752 37.752 0 0 0 8.909 3.695l.869-2.234a51.176 51.176 0 0 0 3.12-12.488 22.604 22.604 0 0 1-5.305-2.206zm-6.163-5.162a55.211 55.211 0 0 1-11.725 6.996l-1.602.705a38.203 38.203 0 0 0 8.495 8.495l.705-1.601a55.216 55.216 0 0 1 6.996-11.726 22.96 22.96 0 0 1-2.869-2.87zM53.25 64A10.75 10.75 0 1 0 64 53.25 10.762 10.762 0 0 0 53.25 64zM66 60v2h2a2 2 0 0 1 0 4h-2v2a2 2 0 0 1-4 0v-2h-2a2 2 0 0 1 0-4h2v-2a2 2 0 0 1 4 0zm-4.03-18.655c.67-.06 1.345-.095 2.03-.095s1.36.036 2.03.095a55.224 55.224 0 0 1 3.343-13.23l.637-1.637a38.046 38.046 0 0 0-12.02 0l.637 1.638a55.21 55.21 0 0 1 3.343 13.23zm13.315 2.914a51.188 51.188 0 0 0 6.63-11.042l.963-2.191a37.752 37.752 0 0 0-8.909-3.695l-.869 2.234a51.176 51.176 0 0 0-3.12 12.488 22.609 22.609 0 0 1 5.305 2.206z"></path><path d="M45.25 64A18.75 18.75 0 1 0 64 45.25 18.771 18.771 0 0 0 45.25 64zm33.5 0A14.75 14.75 0 1 1 64 49.25 14.767 14.767 0 0 1 78.75 64zM52.715 44.259a22.606 22.606 0 0 1 5.304-2.206 51.162 51.162 0 0 0-3.12-12.487l-.868-2.235a37.751 37.751 0 0 0-8.909 3.695l.964 2.19a51.192 51.192 0 0 0 6.63 11.043zM86.28 33.225l-.705 1.601a55.216 55.216 0 0 1-6.996 11.726 22.96 22.96 0 0 1 2.869 2.87 55.211 55.211 0 0 1 11.725-6.997l1.602-.705a38.203 38.203 0 0 0-8.495-8.495z"></path><path d="M64 16a48 48 0 1 0 48 48 48 48 0 0 0-48-48Zm0 90a42 42 0 1 1 42-42 42.048 42.048 0 0 1-42 42Z"></path><path d="M128 67.445v-6.89a5.102 5.102 0 0 0-2.44-4.35q-.037-.304-.078-.606a5.122 5.122 0 0 0 .72-.966 5.067 5.067 0 0 0 .509-3.87l-1.784-6.656a5.11 5.11 0 0 0-3.459-3.564q-.122-.3-.246-.596a5.1 5.1 0 0 0-.074-4.963l-3.445-5.968a5.116 5.116 0 0 0-4.285-2.549q-.185-.243-.373-.484a5.113 5.113 0 0 0-1.354-4.802l-4.872-4.872a5.066 5.066 0 0 0-3.607-1.494 5.138 5.138 0 0 0-1.195.14q-.241-.187-.483-.372a5.123 5.123 0 0 0-.174-1.19 5.067 5.067 0 0 0-2.377-3.096L93.016 6.85a5.09 5.09 0 0 0-4.963-.073q-.299-.125-.6-.247a5.097 5.097 0 0 0-3.561-3.459L77.236 1.29a5.094 5.094 0 0 0-4.831 1.23q-.308-.042-.616-.08A5.091 5.091 0 0 0 67.445 0h-6.89a5.102 5.102 0 0 0-4.35 2.44q-.307.038-.613.079a5.087 5.087 0 0 0-4.828-1.23l-6.657 1.784a5.067 5.067 0 0 0-3.096 2.376 5.138 5.138 0 0 0-.47 1.084q-.299.121-.595.245a5.089 5.089 0 0 0-4.962.073l-5.968 3.446a5.067 5.067 0 0 0-2.376 3.097 5.14 5.14 0 0 0-.174 1.19q-.242.184-.483.371a5.119 5.119 0 0 0-1.195-.14 5.067 5.067 0 0 0-3.607 1.494l-4.872 4.872a5.102 5.102 0 0 0-1.351 4.799q-.19.243-.376.488a5.116 5.116 0 0 0-4.285 2.548l-3.445 5.968a5.066 5.066 0 0 0-.51 3.87 5.137 5.137 0 0 0 .434 1.098q-.123.294-.244.591a5.11 5.11 0 0 0-3.46 3.565L1.29 50.764a5.067 5.067 0 0 0 .51 3.87 5.137 5.137 0 0 0 .719.966l-.08.61A5.09 5.09 0 0 0 0 60.556v6.89a5.102 5.102 0 0 0 2.44 4.35q.037.303.078.606a5.122 5.122 0 0 0-.72.966 5.067 5.067 0 0 0-.509 3.87l1.784 6.656a5.11 5.11 0 0 0 3.459 3.564q.122.3.246.596a5.1 5.1 0 0 0 .074 4.964l3.445 5.967a5.116 5.116 0 0 0 4.285 2.549q.188.246.379.491a5.092 5.092 0 0 0 1.348 4.794l4.872 4.873a5.067 5.067 0 0 0 3.607 1.494 5.134 5.134 0 0 0 1.195-.14q.244.19.49.377a5.094 5.094 0 0 0 2.543 4.28l5.968 3.446a5.09 5.09 0 0 0 4.963.074q.298.125.6.247a5.098 5.098 0 0 0 3.56 3.459l6.657 1.783a5.094 5.094 0 0 0 4.831-1.23q.307.042.616.08A5.091 5.091 0 0 0 60.555 128h6.89a5.102 5.102 0 0 0 4.35-2.44q.307-.038.613-.079a5.087 5.087 0 0 0 4.829 1.23l6.656-1.784a5.066 5.066 0 0 0 3.096-2.376 5.141 5.141 0 0 0 .47-1.084q.299-.121.595-.245a5.089 5.089 0 0 0 4.962-.074l5.968-3.445a5.067 5.067 0 0 0 2.376-3.097 5.135 5.135 0 0 0 .174-1.19q.242-.184.483-.371a5.113 5.113 0 0 0 4.802-1.354l4.872-4.872a5.102 5.102 0 0 0 1.351-4.799q.19-.243.376-.488a5.116 5.116 0 0 0 4.285-2.548l3.445-5.968a5.066 5.066 0 0 0 .51-3.87 5.14 5.14 0 0 0-.434-1.098q.123-.294.244-.591a5.11 5.11 0 0 0 3.46-3.565l1.783-6.656a5.066 5.066 0 0 0-.51-3.87 5.137 5.137 0 0 0-.719-.966l.08-.61A5.09 5.09 0 0 0 128 67.444ZM64 116a52 52 0 1 1 52-52 52.059 52.059 0 0 1-52 52Z"></path><path d="M85.947 58.02a51.172 51.172 0 0 0 12.487-3.12l2.235-.87a37.756 37.756 0 0 0-3.695-8.907l-2.19.964a51.148 51.148 0 0 0-11.043 6.628 22.61 22.61 0 0 1 2.206 5.304zm0 11.96a22.607 22.607 0 0 1-2.206 5.305 51.152 51.152 0 0 0 11.042 6.628l2.191.964a37.756 37.756 0 0 0 3.695-8.907l-2.235-.87a51.172 51.172 0 0 0-12.487-3.12zm.708-8.01c.06.67.095 1.345.095 2.03s-.036 1.36-.095 2.03a55.244 55.244 0 0 1 13.23 3.342l1.637.637a38.047 38.047 0 0 0 0-12.019l-1.638.638a55.244 55.244 0 0 1-13.23 3.342zm-5.207 16.609a22.951 22.951 0 0 1-2.87 2.869 55.221 55.221 0 0 1 6.997 11.726l.705 1.601a38.203 38.203 0 0 0 8.495-8.495l-1.602-.705a55.218 55.218 0 0 1-11.725-6.996zm-6.163 5.162a22.606 22.606 0 0 1-5.304 2.206 51.162 51.162 0 0 0 3.12 12.487l.868 2.235a37.751 37.751 0 0 0 8.909-3.695l-.964-2.19a51.192 51.192 0 0 0-6.63-11.043zm-9.255 2.914c-.67.06-1.345.095-2.03.095s-1.36-.036-2.03-.095a55.224 55.224 0 0 1-3.343 13.23l-.637 1.637a38.046 38.046 0 0 0 12.02 0l-.637-1.638a55.21 55.21 0 0 1-3.343-13.23z"></path></svg>